{
	"asset":{
		"generator":"Khronos glTF Blender I/O v5.0.21",
		"version":"2.0"
	},
	"extensionsUsed":[
		"KHR_materials_specular",
		"EXT_texture_webp",
		"EXT_mesh_gpu_instancing"
	],
	"extensionsRequired":[
		"EXT_texture_webp"
	],
	"scene":0,
	"scenes":[
		{
			"name":"Scene",
			"nodes":[
				0
			]
		}
	],
	"nodes":[
		{
			"extensions":{
				"EXT_mesh_gpu_instancing":{
					"attributes":{
						"TRANSLATION":7,
						"ROTATION":8,
						"SCALE":9
					}
				}
			},
			"mesh":0,
			"name":"Plane",
			"translation":[
				0,
				-0.09999999403953552,
				0
			]
		}
	],
	"materials":[
		{
			"alphaMode":"BLEND",
			"doubleSided":true,
			"extensions":{
				"KHR_materials_specular":{
					"specularFactor":0
				}
			},
			"name":"Tree_Branches_01",
			"pbrMetallicRoughness":{
				"baseColorTexture":{
					"index":0
				},
				"metallicFactor":0,
				"roughnessFactor":0.5
			}
		}
	],
	"meshes":[
		{
			"name":"Tree_Trunk_01.002_Tree_Trunk_01_0",
			"primitives":[
				{
					"attributes":{
						"POSITION":0,
						"NORMAL":1,
						"TEXCOORD_0":2,
						"TEXCOORD_1":3,
						"TEXCOORD_2":4,
						"COLOR_0":5
					},
					"indices":6,
					"material":0
				}
			]
		}
	],
	"textures":[
		{
			"extensions":{
				"EXT_texture_webp":{
					"source":0
				}
			},
			"sampler":0
		}
	],
	"images":[
		{
			"mimeType":"image/webp",
			"name":"Tree_Branches_01_baseColor",
			"uri":"textures/Tree_Branches_01_baseColor.webp"
		}
	],
	"accessors":[
		{
			"bufferView":0,
			"componentType":5126,
			"count":409,
			"max":[
				5.238685607910156,
				18.491483688354492,
				5.0288848876953125
			],
			"min":[
				-4.824302673339844,
				0.08750379830598831,
				-5.0400848388671875
			],
			"type":"VEC3"
		},
		{
			"bufferView":1,
			"componentType":5126,
			"count":409,
			"type":"VEC3"
		},
		{
			"bufferView":2,
			"componentType":5126,
			"count":409,
			"type":"VEC2"
		},
		{
			"bufferView":3,
			"componentType":5126,
			"count":409,
			"type":"VEC2"
		},
		{
			"bufferView":4,
			"componentType":5126,
			"count":409,
			"type":"VEC2"
		},
		{
			"bufferView":5,
			"componentType":5123,
			"count":409,
			"normalized":true,
			"type":"VEC4"
		},
		{
			"bufferView":6,
			"componentType":5123,
			"count":570,
			"type":"SCALAR"
		},
		{
			"bufferView":7,
			"componentType":5126,
			"count":107,
			"type":"VEC3"
		},
		{
			"bufferView":8,
			"componentType":5126,
			"count":107,
			"type":"VEC4"
		},
		{
			"bufferView":9,
			"componentType":5126,
			"count":107,
			"type":"VEC3"
		}
	],
	"bufferViews":[
		{
			"buffer":0,
			"byteLength":4908,
			"byteOffset":0,
			"target":34962
		},
		{
			"buffer":0,
			"byteLength":4908,
			"byteOffset":4908,
			"target":34962
		},
		{
			"buffer":0,
			"byteLength":3272,
			"byteOffset":9816,
			"target":34962
		},
		{
			"buffer":0,
			"byteLength":3272,
			"byteOffset":13088,
			"target":34962
		},
		{
			"buffer":0,
			"byteLength":3272,
			"byteOffset":16360,
			"target":34962
		},
		{
			"buffer":0,
			"byteLength":3272,
			"byteOffset":19632,
			"target":34962
		},
		{
			"buffer":0,
			"byteLength":1140,
			"byteOffset":22904,
			"target":34963
		},
		{
			"buffer":0,
			"byteLength":1284,
			"byteOffset":24044
		},
		{
			"buffer":0,
			"byteLength":1712,
			"byteOffset":25328
		},
		{
			"buffer":0,
			"byteLength":1284,
			"byteOffset":27040
		}
	],
	"samplers":[
		{
			"magFilter":9729,
			"minFilter":9987
		}
	],
	"buffers":[
		{
			"byteLength":28324,
			"uri":"trees.bin"
		}
	]
}
